<svg width="351" height="32" viewBox="0 0 351 32" fill="none" xmlns="http://www.w3.org/2000/svg">
<g clip-path="url(#clip0)">
<path d="M16.0622 24C11.6356 24 8.06223 20.4267 8.06223 16C8.06223 11.5733 11.6356 8 16.0622 8C19.7867 8 22.9156 10.5511 23.8133 14H32.0622V0H0.0622272V32H32.0622V18H23.8133C22.9067 21.4489 19.7867 24 16.0622 24Z" fill="#F05323"/>
<path d="M38.96 16.1422C38.96 10.2311 43.3778 6.18667 48.9156 6.18667C52.9511 6.18667 55.3511 8.20445 56.7911 10.5156L53.9022 11.9911C52.9778 10.4089 51.1289 9.19111 48.9156 9.19111C45.2533 9.19111 42.4267 12.1067 42.4267 16.1422C42.4267 20.1778 45.2533 23.0933 48.9156 23.0933C51.1378 23.0933 52.9867 21.9111 53.9022 20.2933L56.7911 21.7689C55.3156 24.08 52.9511 26.0978 48.9156 26.0978C43.3689 26.0978 38.96 22.0622 38.96 16.1422Z" fill="white"/>
<path d="M69.3956 9.19111C65.5022 9.19111 63.0222 12.16 63.0222 16.1422C63.0222 20.0978 65.5022 23.0933 69.3956 23.0933C73.2622 23.0933 75.7689 20.0889 75.7689 16.1422C75.7689 12.16 73.2622 9.19111 69.3956 9.19111ZM69.3956 6.19556C75.1644 6.19556 79.2356 10.4089 79.2356 16.1511C79.2356 21.8933 75.1644 26.1067 69.3956 26.1067C63.6267 26.1067 59.5556 21.8933 59.5556 16.1511C59.5556 10.4 63.6267 6.19556 69.3956 6.19556Z" fill="white"/>
<path d="M91.1467 22.7822C95.3333 22.7822 97.7511 19.7778 97.7511 16.1511C97.7511 12.4267 95.44 9.48444 91.1467 9.48444H87.3689V22.7822H91.1467ZM83.9911 6.50667H91.1467C97.1467 6.50667 101.218 10.4889 101.218 16.1422C101.218 21.7956 97.1467 25.7511 91.1467 25.7511H83.9911V6.50667Z" fill="white"/>
<path d="M106.258 6.50667H119.44V9.48444H109.636V14.4711H119.244V17.44H109.636V22.7822H119.44V25.7511H106.258V6.50667Z" fill="white"/>
<path d="M129.076 17.8756H133.458V10.8356L129.076 17.8756ZM133.458 22.2311H124.258V18.3644L131.556 6.50667H138.453V17.8756H140.791V22.2311H138.453V25.7511H133.458V22.2311Z" fill="white"/>
<path d="M144.711 21.8844C153.049 15.8578 154.604 14.5244 154.604 12.6222C154.604 11.2978 153.36 10.6044 151.867 10.6044C149.822 10.6044 148.204 11.4133 146.818 12.7111L144.08 9.42222C146.124 7.17333 149.182 6.22222 151.867 6.22222C156.4 6.22222 159.653 8.76444 159.653 12.6311C159.653 15.5733 157.547 18.08 152.382 21.4311H159.796V25.76H144.711V21.8844Z" fill="white"/>
<path d="M192 -8V40" stroke="white" stroke-width="1.5" stroke-miterlimit="10"/>
<path d="M231.611 23.5466H233.611V5.75991H231.611V12.6132C230.571 11.1999 228.997 10.3466 227.264 10.3466C223.877 10.3466 221.531 13.0132 221.531 17.1199C221.531 21.3066 223.904 23.8666 227.264 23.8666C229.077 23.8666 230.651 22.9332 231.611 21.6266V23.5466ZM231.611 20.0532C230.891 21.1732 229.344 22.0799 227.744 22.0799C225.157 22.0799 223.611 19.9732 223.611 17.1199C223.611 14.2666 225.157 12.1332 227.744 12.1332C229.344 12.1332 230.891 13.0932 231.611 14.2132V20.0532Z" fill="white"/>
<path d="M236.869 17.0932C236.869 21.1199 239.616 23.8666 243.429 23.8666C245.536 23.8666 247.269 23.1732 248.549 21.8932L247.589 20.5866C246.576 21.6266 245.082 22.2132 243.616 22.2132C240.842 22.2132 239.136 20.1866 238.976 17.7599H249.402V17.2532C249.402 13.3866 247.109 10.3466 243.216 10.3466C239.536 10.3466 236.869 13.3599 236.869 17.0932ZM243.189 11.9999C246.122 11.9999 247.402 14.3732 247.429 16.2932H238.976C239.082 14.3199 240.442 11.9999 243.189 11.9999Z" fill="white"/>
<path d="M256.082 23.5466H258.268L263.628 10.6666H261.442L257.175 21.2266L252.882 10.6666H250.722L256.082 23.5466Z" fill="white"/>
<path d="M264.968 17.0932C264.968 21.1199 267.715 23.8666 271.528 23.8666C273.635 23.8666 275.368 23.1732 276.648 21.8932L275.688 20.5866C274.675 21.6266 273.181 22.2132 271.715 22.2132C268.941 22.2132 267.235 20.1866 267.075 17.7599H277.501V17.2532C277.501 13.3866 275.208 10.3466 271.315 10.3466C267.635 10.3466 264.968 13.3599 264.968 17.0932ZM271.288 11.9999C274.221 11.9999 275.501 14.3732 275.528 16.2932H267.075C267.181 14.3199 268.541 11.9999 271.288 11.9999Z" fill="white"/>
<path d="M280.741 23.5466H282.741V5.75991H280.741V23.5466Z" fill="white"/>
<path d="M292.357 23.8666C296.277 23.8666 298.73 20.8266 298.73 17.0932C298.73 13.3599 296.277 10.3466 292.357 10.3466C288.437 10.3466 285.984 13.3599 285.984 17.0932C285.984 20.8266 288.437 23.8666 292.357 23.8666ZM292.357 22.0799C289.61 22.0799 288.064 19.7332 288.064 17.0932C288.064 14.4799 289.61 12.1332 292.357 12.1332C295.104 12.1332 296.624 14.4799 296.624 17.0932C296.624 19.7332 295.104 22.0799 292.357 22.0799Z" fill="white"/>
<path d="M303.991 28.4532V21.5999C305.031 23.0399 306.577 23.8666 308.337 23.8666C311.724 23.8666 314.071 21.2532 314.071 17.0932C314.071 12.9066 311.724 10.3466 308.337 10.3466C306.524 10.3466 304.924 11.2799 303.991 12.5866V10.6666H301.991V28.4532H303.991ZM311.964 17.0932C311.964 19.9466 310.417 22.0799 307.831 22.0799C306.257 22.0799 304.684 21.1199 303.991 19.9999V14.1866C304.684 13.0666 306.257 12.1332 307.831 12.1332C310.417 12.1332 311.964 14.2399 311.964 17.0932Z" fill="white"/>
<path d="M316.557 17.0932C316.557 21.1199 319.303 23.8666 323.117 23.8666C325.223 23.8666 326.957 23.1732 328.237 21.8932L327.277 20.5866C326.263 21.6266 324.77 22.2132 323.303 22.2132C320.53 22.2132 318.823 20.1866 318.663 17.7599H329.09V17.2532C329.09 13.3866 326.797 10.3466 322.903 10.3466C319.223 10.3466 316.557 13.3599 316.557 17.0932ZM322.877 11.9999C325.81 11.9999 327.09 14.3732 327.117 16.2932H318.663C318.77 14.3199 320.13 11.9999 322.877 11.9999Z" fill="white"/>
<path d="M332.329 23.5466H334.329V14.4266C334.916 13.3866 336.596 12.3732 337.823 12.3732C338.143 12.3732 338.383 12.3999 338.623 12.4532V10.3999C336.863 10.3999 335.369 11.3866 334.329 12.7466V10.6666H332.329V23.5466Z" fill="white"/>
<path d="M340.011 21.8399C341.318 23.2266 343.105 23.8666 345.211 23.8666C348.545 23.8666 350.278 22.1332 350.278 19.9732C350.278 17.1199 347.691 16.4799 345.451 15.9732C343.771 15.5732 342.305 15.1732 342.305 13.9199C342.305 12.7732 343.398 11.9732 345.158 11.9732C346.811 11.9732 348.225 12.6666 348.998 13.5999L349.931 12.2132C348.891 11.1732 347.345 10.3466 345.158 10.3466C342.091 10.3466 340.358 12.0532 340.358 14.0532C340.358 16.7199 342.838 17.3066 345.025 17.8132C346.758 18.2399 348.331 18.6932 348.331 20.1066C348.331 21.3599 347.265 22.2399 345.291 22.2399C343.531 22.2399 341.905 21.3866 341.051 20.3999L340.011 21.8399Z" fill="white"/>
</g>
<defs>
<clipPath id="clip0">
<rect width="350.222" height="32" fill="white"/>
</clipPath>
</defs>
</svg>
